<?xml version="1.0" encoding="UTF-8"?>
<svg xmlns="http://www.w3.org/2000/svg" xmlns:xlink="http://www.w3.org/1999/xlink" viewBox="0 0 480 480" width="480px" height="480px">
<g id="surface88345440">
<path style=" stroke:none;fill-rule:nonzero;fill:rgb(93.725491%,26.666668%,26.666668%);fill-opacity:1;" d="M 240 480 C 107.453125 480 0 372.546875 0 240 C 0 107.453125 107.453125 0 240 0 C 372.546875 0 480 107.453125 480 240 C 480 372.546875 372.546875 480 240 480 Z M 240 480 "/>
<path style=" stroke:none;fill-rule:nonzero;fill:rgb(93.725491%,26.666668%,26.666668%);fill-opacity:1;" d="M 380 420 L 100 420 C 77.910156 420 60 402.089844 60 380 L 60 100 C 60 77.910156 77.910156 60 100 60 L 380 60 C 402.089844 60 420 77.910156 420 100 L 420 380 C 420 402.089844 402.089844 420 380 420 Z M 380 420 "/>
<path style=" stroke:none;fill-rule:nonzero;fill:rgb(100%,100%,100%);fill-opacity:1;" d="M 230.960938 102.628906 C 236.160156 99.148438 242.949219 99.148438 248.148438 102.628906 C 261.398438 110.96875 274.121094 120.128906 286.21875 130.058594 C 286.21875 130.058594 289.519531 132.339844 289.609375 128.46875 C 289.28125 123.46875 289.578125 118.449219 290.488281 113.53125 C 291.488281 110.898438 294 109.148438 296.820312 109.128906 C 296.820312 109.128906 311.769531 109.878906 321.261719 111.148438 C 325.5 111.710938 328.808594 115.109375 329.261719 119.371094 C 329.261719 119.371094 335.371094 160.078125 336.738281 174.761719 C 336.738281 174.761719 337.917969 182.238281 348.738281 194.890625 C 348.738281 194.890625 370.71875 225.667969 373.269531 231.550781 C 373.269531 231.550781 378.371094 242.191406 367.378906 243.640625 C 367.378906 243.640625 347.328125 245.660156 345.398438 246.101562 C 342.699219 246.417969 340.75 248.839844 341 251.550781 C 341 251.550781 339.949219 322.371094 334.761719 356.398438 C 334.761719 356.398438 333.398438 369.898438 325.96875 369.589844 C 325.96875 369.589844 305.351562 368.929688 300.558594 369.058594 C 300.558594 369.058594 298.5 369.058594 298.800781 366.289062 C 298.800781 366.289062 309.300781 255.859375 302.191406 200.03125 C 302.191406 200.03125 301.878906 192.820312 296.390625 191.238281 C 296.390625 191.238281 291.378906 189.21875 286.589844 195.640625 C 265.800781 224.75 254.410156 259.53125 253.96875 295.300781 C 253.96875 295.300781 253.398438 312.890625 256.078125 317.28125 C 256.078125 317.28125 257.738281 320.359375 266.28125 321.058594 L 277.089844 322.511719 C 277.089844 322.511719 279.070312 322.511719 278.890625 325.140625 C 278.890625 325.140625 276.429688 357.539062 275.730469 363.300781 C 275.679688 364.621094 275.417969 365.898438 274.929688 367.121094 C 274.929688 367.121094 274.539062 368.21875 271.148438 368.089844 C 271.148438 368.089844 223.5 367.738281 218.128906 368.089844 C 218.128906 368.089844 215.890625 368.089844 215.410156 366.910156 C 214.929688 365.71875 212.109375 325.101562 212.199219 319.339844 C 212.109375 318.140625 212.78125 317.019531 213.871094 316.519531 C 221.238281 311.871094 226.089844 304.128906 227.058594 295.46875 C 227.640625 289.308594 227.71875 283.121094 227.320312 276.960938 C 227.320312 276.960938 229.078125 214.851562 229.519531 204.859375 C 229.519531 204.859375 229.871094 201.46875 225.46875 200.871094 C 223.269531 200.351562 221.070312 201.710938 220.550781 203.898438 L 220.550781 204.25 C 220.550781 204.601562 217.480469 245.21875 218.039062 261.398438 C 218.039062 261.398438 219.101562 271.988281 211.761719 272.210938 C 211.761719 272.210938 204.640625 273.269531 204.28125 264.429688 C 204.28125 264.429688 204.808594 224.601562 206.558594 204.910156 C 206.570312 202.660156 204.890625 200.761719 202.648438 200.511719 C 200.320312 200.191406 198.148438 201.761719 197.730469 204.070312 C 197.699219 204.179688 197.699219 204.300781 197.730469 204.417969 C 197.730469 204.417969 194.648438 242.539062 195.21875 262.679688 C 195.21875 262.679688 196.101562 272.441406 188.320312 272.078125 C 188.320312 272.078125 181.808594 272.828125 181.46875 264.167969 C 181.46875 264.167969 183.230469 209.621094 183.710938 205.398438 C 183.589844 203.25 181.941406 201.5 179.800781 201.269531 L 179.359375 201.269531 C 177.078125 201.078125 175.039062 202.660156 174.648438 204.917969 C 174.640625 205.050781 174.640625 205.179688 174.648438 205.308594 C 174.648438 205.308594 171.761719 270.550781 172.148438 289.710938 C 172.148438 289.710938 171.890625 309.410156 186.429688 317.410156 C 186.429688 317.410156 188.578125 318.640625 188.628906 320.53125 C 188.628906 320.53125 190.261719 355.128906 191.75 366.300781 C 191.75 366.300781 192.28125 368.980469 189.910156 368.980469 L 153.28125 370 C 149.300781 369.980469 146.019531 366.851562 145.800781 362.878906 C 141.058594 326.21875 138.800781 289.28125 139.039062 252.320312 C 139.308594 249.488281 137.417969 246.910156 134.640625 246.300781 C 134.640625 246.300781 115.910156 244.589844 111.378906 243.449219 C 107.21875 242.371094 104.71875 238.121094 105.800781 233.960938 C 105.980469 233.261719 106.261719 232.589844 106.628906 231.96875 C 137.058594 179.46875 179.710938 135.101562 230.960938 102.628906 Z M 230.960938 102.628906 "/>
</g>
</svg>
